<?xml version="1.0" encoding="UTF-8"?>
<!-- Generated by Pixelmator Pro 4.2 -->
<svg width="4266" height="4266" viewBox="0 0 4266 4266" xmlns="http://www.w3.org/2000/svg">
    <g id="Layer-1">
        <path id="Path" fill="#f8f7d1" stroke="none" d="M 4266.666504 4266 L 0 4266 L 0 -0.666504 L 4266.666504 -0.666504 L 4266.666504 4266 Z"/>
        <g id="Group">
            <g id="g1">
                <path id="path1" fill="#e9e75a" stroke="none" d="M 1508.535889 3666.092285 C 852.988037 3667.657715 607.889038 2874.749023 861.66449 2358.278076 C 1054.563232 1951.176025 1545.635132 1808.853027 1917.915527 2066.094482 C 2019.065308 2137.30835 2103.994629 2240.737305 2117.912842 2359.842285 L 1999.162964 2387.967285 L 1999.162964 1319.217529 L 2503.329834 1319.217529 L 2503.329834 3631.717285 L 2036.662964 3631.717285 L 2039.035278 3253.592285 L 2108.537842 3269.217285 C 2070.936768 3525.071777 1749.109863 3669.724365 1508.535889 3666.092285 Z M 1637.423828 3249.59668 C 1886.113037 3252.795898 2017.11145 3037.192139 2012.421021 2802.719727 C 2012.423828 2711.071289 1997.287109 2631.920898 1967.111328 2565.22168 C 1906.06897 2430.375244 1788.144775 2351.585449 1637.423828 2352.722168 C 1485.57251 2351.578125 1372.511963 2431.004395 1309.296631 2565.222168 C 1191.218018 2830.732666 1287.898926 3253.148926 1637.423828 3249.59668 Z"/>
                <path id="path2" fill="#e9e75a" stroke="none" d="M 1675.202515 3499.425781 C 1019.654724 3500.991211 774.555725 2708.082275 1028.331177 2191.611328 C 1221.22998 1784.509277 1712.301758 1642.186279 2084.582031 1899.427734 C 2185.731934 1970.641846 2270.661377 2074.070557 2284.579834 2193.175537 L 2165.829834 2221.300781 L 2165.829834 1152.550781 L 2669.996338 1152.550781 L 2669.996338 3465.050781 L 2203.329834 3465.050781 L 2205.701904 3086.925781 L 2275.204834 3102.550781 C 2237.603516 3358.405273 1915.776611 3503.057617 1675.202515 3499.425781 Z M 1804.090454 3082.929932 C 2052.779541 3086.12915 2183.778076 2870.525391 2179.087646 2636.053223 C 2179.090576 2544.404541 2163.953857 2465.25415 2133.778076 2398.554932 C 2072.735596 2263.708496 1954.811523 2184.918945 1804.090454 2186.05542 C 1652.239258 2184.911377 1539.178589 2264.337891 1475.963379 2398.55542 C 1357.884766 2664.065918 1454.565552 3086.482178 1804.090454 3082.929932 Z"/>
                <path id="path3" fill="#e9e75a" stroke="none" d="M 1675.202515 3499.425781 C 1019.654724 3500.991211 774.555725 2708.082275 1028.331177 2191.611328 C 1221.22998 1784.509277 1712.301758 1642.186279 2084.582031 1899.427734 C 2185.731934 1970.641846 2270.661377 2074.070557 2284.579834 2193.175537 L 2165.829834 2221.300781 L 2165.829834 1152.550781 L 2669.996338 1152.550781 L 2669.996338 3465.050781 L 2203.329834 3465.050781 L 2205.701904 3086.925781 L 2275.204834 3102.550781 C 2237.603516 3358.405273 1915.776611 3503.057617 1675.202515 3499.425781 Z M 1804.090454 3082.929932 C 2052.779541 3086.12915 2183.778076 2870.525391 2179.087646 2636.053223 C 2179.090576 2544.404541 2163.953857 2465.25415 2133.778076 2398.554932 C 2072.735596 2263.708496 1954.811523 2184.918945 1804.090454 2186.05542 C 1652.239258 2184.911377 1539.178589 2264.337891 1475.963379 2398.55542 C 1357.884766 2664.065918 1454.565552 3086.482178 1804.090454 3082.929932 Z"/>
                <path id="path4" fill="#e9e75a" stroke="none" d="M 1841.869263 3332.759033 C 1186.321411 3334.324463 941.222412 2541.415527 1194.997803 2024.94458 C 1387.896606 1617.842529 1878.968384 1475.519531 2251.249023 1732.76123 C 2352.398682 1803.975098 2437.328125 1907.404053 2451.246338 2026.509033 L 2332.496338 2054.634033 L 2332.496338 985.884033 L 2836.663086 985.884033 L 2836.663086 3298.384033 L 2369.996338 3298.384033 L 2372.368652 2920.259033 L 2441.871338 2935.884033 C 2404.270264 3191.738525 2082.443359 3336.391113 1841.869263 3332.759033 Z M 1970.757202 2916.263184 C 2219.446289 2919.462402 2350.444824 2703.858887 2345.75415 2469.386475 C 2345.757324 2377.737793 2330.620605 2298.587402 2300.444824 2231.888184 C 2239.402344 2097.041992 2121.478027 2018.251953 1970.757202 2019.388916 C 1818.905884 2018.244873 1705.845215 2097.670898 1642.630005 2231.888672 C 1524.551392 2497.399414 1621.232178 2919.81543 1970.757202 2916.263184 Z"/>
            </g>
            <g id="g2">
                <g id="g3">
                    <path id="path5" fill="#f6bf54" stroke="none" d="M 1675.202515 3499.425781 C 1019.654724 3500.991211 774.555725 2708.082275 1028.331177 2191.611328 C 1221.22998 1784.509277 1712.301758 1642.186279 2084.582031 1899.427734 C 2185.731934 1970.641846 2270.661377 2074.070557 2284.579834 2193.175537 L 2165.829834 2221.300781 L 2165.829834 1152.550781 L 2669.996338 1152.550781 L 2669.996338 3465.050781 L 2203.329834 3465.050781 L 2205.701904 3086.925781 L 2275.204834 3102.550781 C 2237.603516 3358.405273 1915.776611 3503.057617 1675.202515 3499.425781 Z M 1804.090454 3082.929932 C 2052.779541 3086.12915 2183.778076 2870.525391 2179.087646 2636.053223 C 2179.090576 2544.404541 2163.953857 2465.25415 2133.778076 2398.554932 C 2072.735596 2263.708496 1954.811523 2184.918945 1804.090454 2186.05542 C 1652.239258 2184.911377 1539.178589 2264.337891 1475.963379 2398.55542 C 1357.884766 2664.065918 1454.565552 3086.482178 1804.090454 3082.929932 Z"/>
                    <path id="path6" fill="#f6bf54" stroke="none" d="M 1841.869263 3332.759033 C 1186.321411 3334.324463 941.222412 2541.415527 1194.997803 2024.94458 C 1387.896606 1617.842529 1878.968384 1475.519531 2251.249023 1732.76123 C 2352.398682 1803.975098 2437.328125 1907.404053 2451.246338 2026.509033 L 2332.496338 2054.634033 L 2332.496338 985.884033 L 2836.663086 985.884033 L 2836.663086 3298.384033 L 2369.996338 3298.384033 L 2372.368652 2920.259033 L 2441.871338 2935.884033 C 2404.270264 3191.738525 2082.443359 3336.391113 1841.869263 3332.759033 Z M 1970.757202 2916.263184 C 2219.446289 2919.462402 2350.444824 2703.858887 2345.75415 2469.386475 C 2345.757324 2377.737793 2330.620605 2298.587402 2300.444824 2231.888184 C 2239.402344 2097.041992 2121.478027 2018.251953 1970.757202 2019.388916 C 1818.905884 2018.244873 1705.845215 2097.670898 1642.630005 2231.888672 C 1524.551392 2497.399414 1621.232178 2919.81543 1970.757202 2916.263184 Z"/>
                </g>
                <g id="g4">
                    <g id="g5">
                        <path id="path7" fill="#de494b" stroke="none" d="M 1841.869263 3332.759033 C 1186.321411 3334.324463 941.222412 2541.415527 1194.997803 2024.94458 C 1387.896606 1617.842529 1878.968384 1475.519531 2251.249023 1732.76123 C 2352.398682 1803.975098 2437.328125 1907.404053 2451.246338 2026.509033 L 2332.496338 2054.634033 L 2332.496338 985.884033 L 2836.663086 985.884033 L 2836.663086 3298.384033 L 2369.996338 3298.384033 L 2372.368652 2920.259033 L 2441.871338 2935.884033 C 2404.270264 3191.738525 2082.443359 3336.391113 1841.869263 3332.759033 Z M 1970.757202 2916.263184 C 2219.446289 2919.462402 2350.444824 2703.858887 2345.75415 2469.386475 C 2345.757324 2377.737793 2330.620605 2298.587402 2300.444824 2231.888184 C 2239.402344 2097.041992 2121.478027 2018.251953 1970.757202 2019.388916 C 1818.905884 2018.244873 1705.845215 2097.670898 1642.630005 2231.888672 C 1524.551392 2497.399414 1621.232178 2919.81543 1970.757202 2916.263184 Z"/>
                    </g>
                    <g id="g6">
                        <g id="g7">
                            <path id="path8" fill="#272726" stroke="none" d="M 2008.535889 3166.092285 C 1352.988037 3167.657715 1107.889038 2374.749023 1361.664429 1858.277832 C 1554.563232 1451.176025 2045.635132 1308.853027 2417.915527 1566.094482 C 2519.06543 1637.308594 2603.994629 1740.737305 2617.913086 1859.842529 L 2499.163086 1887.967529 L 2499.163086 819.217529 L 3003.329834 819.217529 L 3003.329834 3131.717285 L 2536.663086 3131.717285 L 2539.0354 2753.592285 L 2608.538086 2769.217285 C 2570.936768 3025.071777 2249.109863 3169.724365 2008.535889 3166.092285 Z M 2137.424072 2749.59668 C 2386.113037 2752.795898 2517.111572 2537.192139 2512.420898 2302.719727 C 2512.424072 2211.071045 2497.287354 2131.920898 2467.111572 2065.22168 C 2406.068848 1930.375244 2288.14502 1851.585449 2137.424072 1852.722168 C 1985.57251 1851.578125 1872.511963 1931.004395 1809.296631 2065.221924 C 1691.218018 2330.732666 1787.898926 2753.148926 2137.424072 2749.59668 Z"/>
                        </g>
                    </g>
                </g>
            </g>
        </g>
        <g id="g8">
            <path id="path9" fill="#272726" stroke="none" d="M 2008.535889 3166.092285 C 1352.988037 3167.657715 1107.889038 2374.749023 1361.664429 1858.277832 C 1554.563232 1451.176025 2045.635132 1308.853027 2417.915527 1566.094482 C 2519.06543 1637.308594 2603.994629 1740.737305 2617.913086 1859.842529 L 2499.163086 1887.967529 L 2499.163086 819.217529 L 3003.329834 819.217529 L 3003.329834 3131.717285 L 2536.663086 3131.717285 L 2539.0354 2753.592285 L 2608.538086 2769.217285 C 2570.936768 3025.071777 2249.109863 3169.724365 2008.535889 3166.092285 Z M 2137.424072 2749.59668 C 2386.113037 2752.795898 2517.111572 2537.192139 2512.420898 2302.719727 C 2512.424072 2211.071045 2497.287354 2131.920898 2467.111572 2065.22168 C 2406.068848 1930.375244 2288.14502 1851.585449 2137.424072 1852.722168 C 1985.57251 1851.578125 1872.511963 1931.004395 1809.296631 2065.221924 C 1691.218018 2330.732666 1787.898926 2753.148926 2137.424072 2749.59668 Z"/>
        </g>
    </g>
</svg>
